<?xml version="1.0" encoding="utf-8"?>
<!-- Generator: Adobe Illustrator 23.0.6, SVG Export Plug-In . SVG Version: 6.00 Build 0)  -->
<svg version="1.1" id="Layer_1" xmlns="http://www.w3.org/2000/svg" xmlns:xlink="http://www.w3.org/1999/xlink" x="0px" y="0px"
	 viewBox="0 0 64 64" style="enable-background:new 0 0 64 64;" xml:space="preserve">
<style type="text/css">
	.st0{fill:#F9C995;}
	.st1{fill:#C52026;}
	.st2{fill:#DDDDDD;}
	.st3{fill:#787878;}
	.st4{fill:#FDC88D;}
	.st5{fill:#2D2D2D;}
	.st6{fill:#47C8F5;}
	.st7{fill:none;}
	.st8{fill:#BCBCBC;}
	.st9{fill:#606161;}
	.st10{fill:#F37B87;}
	.st11{fill:#FFC613;}
	.st12{fill:#FFFFFF;}
	.st13{fill:#E2A538;}
	.st14{fill:#FAE7D0;}
	.st15{fill:#F3AE3D;}
	.st16{fill:#81C341;}
	.st17{fill:none;stroke:#000000;stroke-width:2;stroke-linecap:round;stroke-linejoin:round;stroke-miterlimit:10;}
	.st18{opacity:0.3;}
	.st19{opacity:0.3;fill:#FFFFFF;}
</style>
<g id="Vector">
	<g>
		<path class="st1" d="M53.99,32.9v17.04c0,2.39-1.93,4.32-4.32,4.32H12.23c-2.39,0-4.32-1.93-4.32-4.32V32.9
			c0-0.79,0.21-1.53,0.57-2.16h44.43c0.17,0,0.33-0.01,0.49-0.03C53.78,31.35,53.99,32.1,53.99,32.9z"/>
		<path class="st2" d="M58.61,24.14v2.64c0,2.03-1.56,3.69-3.59,3.93c-0.17,0.02-0.33,0.03-0.51,0.03H8.62
			c-2.25-0.02-4.06-1.78-4.06-3.96v-2.64c0-2.19,1.83-3.96,4.09-3.96h45.88C56.79,20.18,58.61,21.95,58.61,24.14z"/>
		<path class="st2" d="M41.33,14.21v5.97h-3.79v-2.27c0-1.94-1.57-3.51-3.51-3.51h-6.12c-1.94,0-3.51,1.57-3.51,3.51v2.27h-3.79
			v-5.97c0-1.94,1.57-3.51,3.51-3.51h13.7C39.76,10.7,41.33,12.27,41.33,14.21z"/>
		<polygon class="st12" points="40.61,39.65 40.61,45.14 34.75,45.14 34.75,51.01 29.25,51.01 29.25,45.14 23.39,45.14 23.39,39.65 
			29.25,39.65 29.25,33.79 34.75,33.79 34.75,39.65 		"/>
	</g>
</g>
<g id="Line">
	<g>
		<path class="st17" d="M53.99,32.9v17.04c0,2.39-1.93,4.32-4.32,4.32H12.23c-2.39,0-4.32-1.93-4.32-4.32V32.9
			c0-0.79,0.21-1.53,0.57-2.16h44.43c0.17,0,0.33-0.01,0.49-0.03C53.78,31.35,53.99,32.1,53.99,32.9z"/>
		<path class="st17" d="M58.61,24.14v2.64c0,2.03-1.56,3.69-3.59,3.93c-0.17,0.02-0.33,0.03-0.51,0.03H8.62
			c-2.25-0.02-4.06-1.78-4.06-3.96v-2.64c0-2.19,1.83-3.96,4.09-3.96h45.88C56.79,20.18,58.61,21.95,58.61,24.14z"/>
		<path class="st17" d="M41.33,14.21v5.97h-3.79v-2.27c0-1.94-1.57-3.51-3.51-3.51h-6.12c-1.94,0-3.51,1.57-3.51,3.51v2.27h-3.79
			v-5.97c0-1.94,1.57-3.51,3.51-3.51h13.7C39.76,10.7,41.33,12.27,41.33,14.21z"/>
		<polygon class="st17" points="40.61,39.65 40.61,45.14 34.75,45.14 34.75,51.01 29.25,51.01 29.25,45.14 23.39,45.14 23.39,39.65 
			29.25,39.65 29.25,33.79 34.75,33.79 34.75,39.65 		"/>
	</g>
</g>
<g id="shadow">
	<path class="st18" d="M53.99,49.95V32.9c0-0.79-0.21-1.53-0.57-2.16h-0.51c0.17,0,0.33-0.01,0.49-0.03
		c0.01,0.01,0.01,0.02,0.02,0.03h1.1c0.18,0,0.34-0.01,0.51-0.03c2.03-0.24,3.59-1.9,3.59-3.93v-2.64c0-2.19-1.83-3.96-4.09-3.96
		h-6.19c0.16,0.57,0.38,1.18,0.62,1.87c1.04,3.05,1.5,6.07,0.25,9.17v23.04h0.48C52.06,54.27,53.99,52.33,53.99,49.95z"/>
</g>
<g id="Highligth">
	<path class="st19" d="M7.39,49.95V32.9c0-0.79,0.21-1.53,0.57-2.16h0.51c-0.17,0-0.33-0.01-0.49-0.03
		c-0.01,0.01-0.01,0.02-0.02,0.03h-1.1c-0.18,0-0.34-0.01-0.51-0.03c-2.03-0.24-3.59-1.9-3.59-3.93v-2.64
		c0-2.19,1.83-3.96,4.09-3.96h6.19c-0.16,0.57-0.38,1.18-0.62,1.87c-1.04,3.05-1.5,6.07-0.25,9.17v23.04h-0.48
		C9.32,54.27,7.39,52.33,7.39,49.95z"/>
</g>
</svg>
